PathFileType	4	(X/Y/Z)	39_1_34_p1_0-198_filt_butterworth.trc
DataRate	CameraRate	NumFrames	NumMarkers	Units	OrigDataRate	OrigDataStartFrame	OrigNumFrames
40.0	40.0	5	27	m	40.0	24	198
Frame#	Time	RHip			RKnee			RAnkle			RBigToe			RSmallToe			RHeel			LHip			LKnee			LAnkle			LBigToe			LSmallToe			LHeel			Neck			Head			Nose			RShoulder			RElbow			RWrist			RThumb			RIndex			RPinky			LShoulder			LElbow			LWrist			LThumb			LIndex			LPinky			
		X1	Y1	Z1	X2	Y2	Z2	X3	Y3	Z3	X4	Y4	Z4	X5	Y5	Z5	X6	Y6	Z6	X7	Y7	Z7	X8	Y8	Z8	X9	Y9	Z9	X10	Y10	Z10	X11	Y11	Z11	X12	Y12	Z12	X13	Y13	Z13	X14	Y14	Z14	X15	Y15	Z15	X16	Y16	Z16	X17	Y17	Z17	X18	Y18	Z18	X19	Y19	Z19	X20	Y20	Z20	X21	Y21	Z21	X22	Y22	Z22	X23	Y23	Z23	X24	Y24	Z24	X25	Y25	Z25	X26	Y26	Z26	X27	Y27	Z27	
24	0.6	0.2739456853019193	0.6512741044789027	0.47350120000774804	0.24255531502050243	0.7221901473504908	0.925401876201448	0.20712438112236484	0.8643370851048819	1.3353043472202508	0.20733791966160336	0.6362419864940579	1.343674365671132	0.27062937177992324	0.7016158675324214	1.3707432022939974	0.18646829546915028	0.9555866187406283	1.404768626783362	0.06702115754732252	0.6887986941837805	0.452267714980108	0.04728724242756761	0.7535650513852945	0.8917895869708596	0.026350846137621883	0.8218022838235152	1.2927027627666934	0.048773593535855635	0.6407576058667939	1.326111364825201	-0.008344953589485372	0.7098779479015693	1.3466640542056734	0.0349521283683635	0.8924407120408782	1.3646353204908466	0.22218380371315785	0.6262679536535074	-0.06632251387337877	0.25368430004348663	0.5238599851862168	-0.29209301772018836	0.2303351604366516	0.44960779176246757	-0.16881384665450785	0.37815278157248844	0.5994221864756819	0.032185333680450345	0.39854875506699083	0.6282328954913833	0.28803417772908546	0.33842946899637877	0.4554763904911825	0.46831777269948904	0.2782139551176968	0.3490020985434151	0.5449811915190487	0.2906761592040339	0.32500161031783703	0.5454304936139183	0.3101832096915393	0.37041720597183014	0.5635045401742543	0.06869855719104732	0.6520464947204607	0.0008533949911964734	-0.015159440279747546	0.6440364090398889	0.21267191952111542	0.0734625060731243	0.40633577806171123	0.23036384166521418	0.13147882207737052	0.2807155160653613	0.22794783888877007	0.13488679634692688	0.2637014223953651	0.24116033151030047	0.11845161253912607	0.3040780435196643	0.28562319653403334
25	0.625	0.2739381588220118	0.6499260413421912	0.4715435402430451	0.24254450187002077	0.7165332288282606	0.9224760882666063	0.20749606832238654	0.864053153949333	1.3337950793904922	0.2073281938847666	0.6363503408314388	1.3435964320172473	0.27096178681998795	0.701589289306251	1.369552635460039	0.18830491131201688	0.9497286169167574	1.4002903467862844	0.06777500927671055	0.6824898866455842	0.4511544137728903	0.047145824471451124	0.7527195463458538	0.8902230949217993	0.026391105961187572	0.8216646572585042	1.2925243103753683	0.049942950937846745	0.6469994065108624	1.330977674865939	-0.008295028940388844	0.7101625301949048	1.3479106946675934	0.03508230121828443	0.892471691985591	1.364438962367704	0.22236313894028006	0.6266250707505974	-0.06625693119798141	0.25312559203873647	0.5230398044848442	-0.2917813312343343	0.22756758130901678	0.44557023034398735	-0.16878412358735767	0.3771586150205894	0.595961557150023	0.031024217608629494	0.3990061963805824	0.6281831348347731	0.2870586638466843	0.34325234863248566	0.4466550909703479	0.47229178509727376	0.2799989147058576	0.3524695179681159	0.5517581732902279	0.29002198975454113	0.329063081883134	0.5515055137019008	0.3251202173739118	0.3834207305049665	0.5695788297558527	0.06875454532612058	0.6522350304978332	0.000774844256583873	-0.020056972719030272	0.6446685266378924	0.22388730553369277	0.07266710907247356	0.40638175123699183	0.20515100727924057	0.13024294971434755	0.28154010229980353	0.19135447832229802	0.13192138990361987	0.2669903050884355	0.19977149812071665	0.12030403877011406	0.3079577838367569	0.24652760181235805
26	0.65	0.27360285319578737	0.6487665702354326	0.47200101616473494	0.24218002850554748	0.7156785733925534	0.9202935155493871	0.2075044092074339	0.8639593409067781	1.3337254894718744	0.20710879128283716	0.6361969662560508	1.343289392612558	0.27067955443601344	0.7026616747541127	1.3699229188497064	0.19082221284197248	0.9351846878783581	1.3937182840401168	0.06655780126281335	0.6782371045339419	0.45064858966955085	0.04695861676245478	0.7515272229560427	0.8877545542355034	0.025855502181393014	0.8210824986227433	1.291893695015827	0.05038989834909605	0.6547014006906138	1.3356288934354419	-0.008249288647496711	0.7106648788484067	1.3480381625290903	0.03494616534673877	0.8915302735077746	1.3629292324668243	0.22373300760119214	0.6226120740176275	-0.06624359663134276	0.251699645792315	0.5200541311472069	-0.29130718276218187	0.22409018700756037	0.4478639423742212	-0.16899181463122578	0.37747387109560904	0.5959793073076926	0.03043565381771749	0.3974659510999359	0.6277023717727966	0.28686007918381573	0.3484541507092308	0.43888977986680633	0.47528261917071923	0.28197404374124513	0.3441223151201452	0.5527734616054463	0.2924710969006025	0.33303955895402243	0.5608683745736981	0.33493586231219175	0.4132183089738494	0.5842238936970416	0.06851502030580918	0.6523172988334317	0.0008579549366461763	-0.026276056915165817	0.6429461767379908	0.23020969645577383	0.0679827335194796	0.406991177343607	0.17663009798341686	0.1295542318508087	0.2845844952600884	0.15504620835841104	0.12896583067518042	0.26864344177036875	0.15766136444715037	0.11890968169364755	0.3060418113599275	0.19787091373468207
27	0.675	0.2733286718510519	0.6492076522746195	0.474059766345459	0.24208328597776035	0.716551545927576	0.920158837982264	0.2074456633579752	0.8639248284189454	1.3339429579959399	0.20696989684006478	0.6363595293792613	1.3433389064830308	0.2705010343483796	0.7026609903762563	1.3701936881819778	0.19243156728627409	0.9252013022354033	1.3900110236355367	0.0647007286481538	0.6781206779437488	0.44998960222498885	0.04690202496866944	0.7508479139230511	0.8863933819183742	0.02503091097770456	0.8208687086829959	1.2918516691863784	0.050564416322404965	0.6587002402961881	1.3364924601801613	-0.00822328345053784	0.7106172798813951	1.3478890349704653	0.03458859718232585	0.8906069209705563	1.360656353995834	0.2259527962482122	0.6158804499268016	-0.06627106645394247	0.2488515233094905	0.5183764886636621	-0.2913086065535163	0.21916330757372654	0.4528986388437845	-0.1694261902560304	0.3776272875228972	0.5964454093235783	0.030852195219398332	0.3967913244011818	0.6272534304290449	0.2883382139328063	0.3520395060678542	0.4358665958749752	0.4789175708308796	0.2844033506122917	0.3454062108198248	0.5583635991607802	0.2943256546706616	0.3370787524121598	0.5720557072907368	0.34048737208960395	0.43611294621967245	0.596631483417741	0.06842097274910022	0.652160822951062	0.0011588248365212387	-0.031248640519774197	0.6446026803495263	0.22699846883647928	0.06156149253641766	0.4059674572460354	0.14602628421490052	0.1275939230775019	0.2857832543823626	0.11900978343671353	0.12778932200414062	0.26726030159592024	0.1192215489496386	0.11285263237904339	0.30701964758739975	0.1517078346839828
28	0.7	0.27364619644382654	0.6543005555202523	0.4740684964312587	0.2422453981673543	0.7168814443845849	0.9208186057985204	0.20744982950857915	0.8639196846104666	1.3339521148924636	0.2076245390665973	0.6401547803440422	1.3451851552517589	0.27051094486686866	0.7023587949312495	1.369930532594279	0.1927471980477038	0.9294143335898573	1.3921940022886061	0.0642921393705118	0.6787935842970944	0.44927229968783383	0.04698709724957768	0.7507081466234041	0.8864504989937353	0.024676728945977555	0.8214897750619986	1.2936429522608748	0.05066287338536163	0.6584644995850317	1.3343905684016788	-0.008143333722078892	0.7102837023493613	1.347812897407231	0.03438643339411197	0.8912414941637644	1.3596317305759187	0.2272738095384529	0.6113479807944984	-0.06632210187215166	0.2441892292263653	0.5176717784108225	-0.29173765301922133	0.21506173083180624	0.4552747710725989	-0.1694363154222962	0.37743497042162594	0.5957727443123557	0.03019188083156458	0.3979497816699137	0.6311150510498247	0.2901522664306414	0.35345832058298127	0.4414087569090962	0.4843908607411002	0.2823116026827679	0.36332600478582017	0.5699666106132687	0.29311254423704575	0.34484056394099416	0.5840674995444377	0.345646943696965	0.4412044260444137	0.6043436727442815	0.06972988691476557	0.6524518584495547	0.0011582788502489685	-0.03525855036319134	0.6372501061939966	0.21969250429749856	0.05766553448651496	0.40328221062105263	0.11823940831944127	0.1295349054031445	0.2920519743878585	0.09030151492221619	0.1292601977469439	0.265680339434293	0.08782017304956072	0.1063604259618612	0.3131262227026298	0.12041558311653422
